<?xml version="1.0" encoding="UTF-8" standalone="no"?>
<!-- Created with Inkscape (http://www.inkscape.org/) -->

<svg
   width="1920mm"
   height="1080mm"
   viewBox="0 0 1920 1080"
   version="1.1"
   id="svg2596"
   inkscape:version="1.1.1 (3bf5ae0d25, 2021-09-20)"
   sodipodi:docname="home_light.svg"
   xmlns:inkscape="http://www.inkscape.org/namespaces/inkscape"
   xmlns:sodipodi="http://sodipodi.sourceforge.net/DTD/sodipodi-0.dtd"
   xmlns="http://www.w3.org/2000/svg"
   xmlns:svg="http://www.w3.org/2000/svg">
  <sodipodi:namedview
     id="namedview2598"
     pagecolor="#ffffff"
     bordercolor="#999999"
     borderopacity="1"
     inkscape:pageshadow="0"
     inkscape:pageopacity="0"
     inkscape:pagecheckerboard="0"
     inkscape:document-units="mm"
     showgrid="false"
     inkscape:zoom="0.08"
     inkscape:cx="2556.25"
     inkscape:cy="2143.75"
     inkscape:window-width="1366"
     inkscape:window-height="716"
     inkscape:window-x="0"
     inkscape:window-y="0"
     inkscape:window-maximized="1"
     inkscape:current-layer="layer1" />
  <defs
     id="defs2593">
    <clipPath
       clipPathUnits="userSpaceOnUse"
       id="clipPath1118">
      <path
         d="M 0,500 H 500 V 0 H 0 Z"
         id="path1116" />
    </clipPath>
    <clipPath
       clipPathUnits="userSpaceOnUse"
       id="clipPath924">
      <path
         d="M 52.827,39.29 H 447.173 V 236.464 H 52.827 Z"
         id="path922" />
    </clipPath>
    <clipPath
       clipPathUnits="userSpaceOnUse"
       id="clipPath936">
      <path
         d="M 52.8271,59.7103 H 447.173 V 56.3368 H 52.8271 Z"
         id="path934" />
    </clipPath>
    <clipPath
       clipPathUnits="userSpaceOnUse"
       id="clipPath268">
      <path
         d="M 91.6753,109.323 H 103.375 V 97.6232 H 91.6753 Z"
         id="path266" />
    </clipPath>
  </defs>
  <g
     inkscape:label="Layer 1"
     inkscape:groupmode="layer"
     id="layer1">
    <g
       id="g30176"
       style="stroke:#aab3bb;stroke-opacity:0.46666667">
      <g
         id="g294"
         transform="matrix(2.303139,0.05786495,0.05786495,-2.303139,477.62922,14.676808)"
         style="stroke:#aab3bb;stroke-opacity:0.46666667">
        <path
           d="m 0,0 c 41.564,0.051 82.765,-19.092 109.532,-50.89 23.213,-27.575 35.169,-62.798 55.081,-92.844 19.912,-30.046 53.54,-56.397 88.976,-49.798 24.331,4.532 43.671,23.936 55.112,45.882 11.442,21.945 16.396,46.572 22.522,70.551 6.127,23.978 13.908,48.323 29.763,67.326 20.099,24.089 52.73,37.091 83.887,33.425"
           style="fill:none;stroke:#aab3bb;stroke-width:1;stroke-linecap:butt;stroke-linejoin:miter;stroke-miterlimit:10;stroke-dasharray:none;stroke-opacity:0.46666667"
           id="path296" />
      </g>
      <g
         id="g298"
         transform="matrix(2.303139,0.05786495,0.05786495,-2.303139,509.78,11.985075)"
         style="stroke:#aab3bb;stroke-opacity:0.46666667">
        <path
           d="m 0,0 c 38.963,0.047 77.585,-17.897 102.677,-47.705 21.76,-25.849 32.967,-58.867 51.634,-87.033 18.666,-28.166 50.189,-52.867 83.407,-46.681 22.808,4.247 40.938,22.438 51.662,43.01 10.726,20.572 15.37,43.658 21.113,66.136 5.743,22.477 13.038,45.298 27.901,63.112 18.84,22.581 49.429,34.769 78.637,31.333"
           style="fill:none;stroke:#aab3bb;stroke-width:1;stroke-linecap:butt;stroke-linejoin:miter;stroke-miterlimit:10;stroke-dasharray:none;stroke-opacity:0.46666667"
           id="path300" />
      </g>
      <g
         id="g302"
         transform="matrix(2.303139,0.05786495,0.05786495,-2.303139,541.9308,9.2930732)"
         style="stroke:#aab3bb;stroke-opacity:0.46666667">
        <path
           d="m 0,0 c 36.361,0.044 72.405,-16.702 95.822,-44.52 20.307,-24.124 30.766,-54.937 48.186,-81.222 17.42,-26.285 46.839,-49.338 77.839,-43.565 21.285,3.964 38.204,20.94 48.214,40.139 10.008,19.198 14.343,40.743 19.703,61.72 5.359,20.977 12.167,42.274 26.037,58.899 17.583,21.073 46.13,32.448 73.387,29.241"
           style="fill:none;stroke:#aab3bb;stroke-width:1;stroke-linecap:butt;stroke-linejoin:miter;stroke-miterlimit:10;stroke-dasharray:none;stroke-opacity:0.46666667"
           id="path304" />
      </g>
      <g
         id="g306"
         transform="matrix(2.303139,0.05786495,0.05786495,-2.303139,574.08043,6.6001372)"
         style="stroke:#aab3bb;stroke-opacity:0.46666667">
        <path
           d="m 0,0 c 33.76,0.041 67.226,-15.507 88.967,-41.335 18.855,-22.398 28.565,-51.007 44.739,-75.412 16.174,-24.405 43.488,-45.809 72.271,-40.448 19.762,3.68 35.47,19.442 44.763,37.267 9.293,17.825 13.318,37.828 18.294,57.304 4.976,19.477 11.297,39.25 24.175,54.686 16.325,19.566 42.829,30.127 68.137,27.149"
           style="fill:none;stroke:#aab3bb;stroke-width:1;stroke-linecap:butt;stroke-linejoin:miter;stroke-miterlimit:10;stroke-dasharray:none;stroke-opacity:0.46666667"
           id="path308" />
      </g>
      <g
         id="g310"
         transform="matrix(2.303139,0.05786495,0.05786495,-2.303139,606.23102,3.9081302)"
         style="stroke:#aab3bb;stroke-opacity:0.46666667">
        <path
           d="m 0,0 c 31.159,0.038 62.045,-14.313 82.112,-38.15 17.402,-20.672 26.364,-47.077 41.292,-69.601 14.927,-22.524 40.137,-42.279 66.701,-37.332 18.24,3.397 32.738,17.944 41.315,34.395 8.578,16.452 12.291,34.914 16.884,52.89 4.593,17.976 10.426,36.226 22.313,50.471 15.066,18.059 39.529,27.806 62.886,25.058"
           style="fill:none;stroke:#aab3bb;stroke-width:1;stroke-linecap:butt;stroke-linejoin:miter;stroke-miterlimit:10;stroke-dasharray:none;stroke-opacity:0.46666667"
           id="path312" />
      </g>
    </g>
    <g
       id="g30287"
       style="stroke:#aab3bb;stroke-opacity:0.46666667">
      <g
         id="g264"
         style="stroke:none;stroke-opacity:0.466667"
         transform="matrix(2.0429979,0,0,-2.0429979,97.510971,1020.6922)" />
      <g
         id="g334"
         transform="matrix(2.0429979,0,0,-2.0429979,82.334382,407.04526)"
         style="stroke:#aab3bb;stroke-opacity:0.46666667">
        <path
           d="m 0,0 c -5.021,-17.482 3.919,-36.382 16.882,-49.142 12.962,-12.759 29.554,-21.021 44.802,-30.939 15.247,-9.918 29.987,-22.573 35.755,-39.824 10.264,-30.692 -10.69,-61.929 -20.681,-92.711 -15.115,-46.573 -3.335,-100.868 29.722,-136.989"
           style="fill:none;stroke:#aab3bb;stroke-width:1;stroke-linecap:butt;stroke-linejoin:miter;stroke-miterlimit:10;stroke-dasharray:none;stroke-opacity:0.46666667"
           id="path336" />
      </g>
      <g
         id="g338"
         transform="matrix(2.0429979,0,0,-2.0429979,58.096868,414.41824)"
         style="stroke:#aab3bb;stroke-opacity:0.46666667">
        <path
           d="m 0,0 c -5.021,-17.482 3.919,-36.382 16.882,-49.141 12.962,-12.761 29.555,-21.023 44.802,-30.941 15.247,-9.918 29.987,-22.573 35.756,-39.823 10.264,-30.691 -10.691,-61.929 -20.681,-92.711 -15.116,-46.573 -3.336,-100.868 29.721,-136.99"
           style="fill:none;stroke:#aab3bb;stroke-width:1;stroke-linecap:butt;stroke-linejoin:miter;stroke-miterlimit:10;stroke-dasharray:none;stroke-opacity:0.46666667"
           id="path340" />
      </g>
      <g
         id="g342"
         transform="matrix(2.0429979,0,0,-2.0429979,33.859117,421.79122)"
         style="stroke:#aab3bb;stroke-opacity:0.46666667">
        <path
           d="m 0,0 c -5.021,-17.482 3.919,-36.382 16.882,-49.142 12.963,-12.759 29.555,-21.021 44.802,-30.939 15.247,-9.919 29.987,-22.574 35.756,-39.824 10.264,-30.692 -10.691,-61.929 -20.681,-92.711 -15.116,-46.573 -3.336,-100.868 29.722,-136.989"
           style="fill:none;stroke:#aab3bb;stroke-width:1;stroke-linecap:butt;stroke-linejoin:miter;stroke-miterlimit:10;stroke-dasharray:none;stroke-opacity:0.46666667"
           id="path344" />
      </g>
      <g
         id="g346"
         transform="matrix(2.0429979,0,0,-2.0429979,9.6224115,429.16419)"
         style="stroke:#aab3bb;stroke-opacity:0.46666667">
        <path
           d="m 0,0 c -5.021,-17.482 3.919,-36.382 16.882,-49.142 12.962,-12.76 29.555,-21.022 44.802,-30.94 15.247,-9.918 29.987,-22.573 35.756,-39.823 10.264,-30.691 -10.691,-61.929 -20.682,-92.711 -15.115,-46.573 -3.335,-100.868 29.722,-136.99"
           style="fill:none;stroke:#aab3bb;stroke-width:1;stroke-linecap:butt;stroke-linejoin:miter;stroke-miterlimit:10;stroke-dasharray:none;stroke-opacity:0.46666667"
           id="path348" />
      </g>
    </g>
    <g
       id="g30334"
       transform="matrix(6.2144226,0,0,6.2144226,-7593.1811,-5964.8612)"
       style="stroke:#aab3bb;stroke-opacity:0.46666667">
      <g
         id="g314"
         transform="matrix(0.35277777,0,0,-0.35277777,1367.2587,1135.123)"
         style="stroke:#aab3bb;stroke-opacity:0.46666667">
        <path
           d="m 0,0 c -6.876,25.099 -11.895,52.451 -2.28,76.634 12.596,31.685 47.548,49.429 81.401,53.494 33.855,4.065 67.941,-2.654 101.941,-5.239 33.999,-2.585 70.413,-0.348 98.435,19.078 38.864,26.94 51.62,79.441 86.689,111.166 29.242,26.454 73.382,35.176 110.488,21.833"
           style="fill:none;stroke:#aab3bb;stroke-width:1;stroke-linecap:butt;stroke-linejoin:miter;stroke-miterlimit:10;stroke-dasharray:none;stroke-opacity:0.46666667"
           id="path316" />
      </g>
      <g
         id="g318"
         transform="matrix(0.35277777,0,0,-0.35277777,1376.3429,1135.123)"
         style="stroke:#aab3bb;stroke-opacity:0.46666667">
        <path
           d="m 0,0 c -6.505,23.743 -11.252,49.618 -2.157,72.494 11.916,29.974 44.979,46.758 77.004,50.605 32.026,3.845 64.271,-2.512 96.433,-4.957 32.163,-2.446 66.609,-0.329 93.118,18.047 36.766,25.486 48.832,75.15 82.006,105.162 27.662,25.024 69.418,33.275 104.519,20.653"
           style="fill:none;stroke:#aab3bb;stroke-width:1;stroke-linecap:butt;stroke-linejoin:miter;stroke-miterlimit:10;stroke-dasharray:none;stroke-opacity:0.46666667"
           id="path320" />
      </g>
      <g
         id="g322"
         transform="matrix(0.35277777,0,0,-0.35277777,1385.4271,1135.123)"
         style="stroke:#aab3bb;stroke-opacity:0.46666667">
        <path
           d="m 0,0 c -6.134,22.388 -10.61,46.784 -2.034,68.354 11.236,28.262 42.41,44.088 72.606,47.714 30.197,3.627 60.601,-2.367 90.927,-4.672 30.325,-2.306 62.806,-0.311 87.801,17.016 34.665,24.03 46.043,70.859 77.322,99.156 26.083,23.596 65.454,31.375 98.551,19.473"
           style="fill:none;stroke:#aab3bb;stroke-width:1;stroke-linecap:butt;stroke-linejoin:miter;stroke-miterlimit:10;stroke-dasharray:none;stroke-opacity:0.46666667"
           id="path324" />
      </g>
      <g
         id="g326"
         transform="matrix(0.35277777,0,0,-0.35277777,1394.5111,1135.123)"
         style="stroke:#aab3bb;stroke-opacity:0.46666667">
        <path
           d="m 0,0 c -5.762,21.031 -9.967,43.951 -1.911,64.215 10.556,26.55 39.843,41.417 68.21,44.824 28.367,3.407 56.93,-2.225 85.419,-4.391 28.489,-2.166 59.002,-0.291 82.483,15.987 32.567,22.575 43.255,66.567 72.64,93.15 24.503,22.167 61.49,29.476 92.582,18.294"
           style="fill:none;stroke:#aab3bb;stroke-width:1;stroke-linecap:butt;stroke-linejoin:miter;stroke-miterlimit:10;stroke-dasharray:none;stroke-opacity:0.46666667"
           id="path328" />
      </g>
      <g
         id="g330"
         transform="matrix(0.35277777,0,0,-0.35277777,1403.5955,1135.123)"
         style="stroke:#aab3bb;stroke-opacity:0.46666667">
        <path
           d="m 0,0 c -5.392,19.676 -9.325,41.117 -1.788,60.075 9.875,24.838 37.273,38.747 63.812,41.935 26.539,3.186 53.26,-2.081 79.913,-4.108 26.652,-2.026 55.198,-0.272 77.165,14.955 30.466,21.121 40.466,62.276 67.957,87.146 22.922,20.737 57.525,27.575 86.613,17.114"
           style="fill:none;stroke:#aab3bb;stroke-width:1;stroke-linecap:butt;stroke-linejoin:miter;stroke-miterlimit:10;stroke-dasharray:none;stroke-opacity:0.46666667"
           id="path332" />
      </g>
    </g>
    <g
       id="g30429"
       style="stroke:#aab3bb;stroke-opacity:0.46666667">
      <g
         id="g350"
         transform="matrix(1.5718418,0,0,-1.5718418,1634.4871,-93.042662)"
         style="stroke:#aab3bb;stroke-opacity:0.46666667">
        <path
           d="m 0,0 c 2.536,-18.011 18.4,-31.629 35.437,-38.001 17.036,-6.372 35.554,-7.158 53.52,-10.004 17.965,-2.847 36.582,-8.399 48.878,-21.803 21.877,-23.847 15.466,-60.912 18.882,-93.093 5.169,-48.692 38.047,-93.478 82.952,-112.998"
           style="fill:none;stroke:#aab3bb;stroke-width:1;stroke-linecap:butt;stroke-linejoin:miter;stroke-miterlimit:10;stroke-dasharray:none;stroke-opacity:0.46666667"
           id="path352" />
      </g>
      <g
         id="g354"
         transform="matrix(1.5718418,0,0,-1.5718418,1619.7681,-80.265298)"
         style="stroke:#aab3bb;stroke-opacity:0.46666667">
        <path
           d="m 0,0 c 2.536,-18.011 18.4,-31.629 35.437,-38.001 17.037,-6.373 35.555,-7.158 53.52,-10.004 17.965,-2.847 36.582,-8.399 48.878,-21.803 21.877,-23.847 15.466,-60.912 18.882,-93.093 5.169,-48.692 38.047,-93.478 82.952,-112.998"
           style="fill:none;stroke:#aab3bb;stroke-width:1;stroke-linecap:butt;stroke-linejoin:miter;stroke-miterlimit:10;stroke-dasharray:none;stroke-opacity:0.46666667"
           id="path356" />
      </g>
      <g
         id="g358"
         transform="matrix(1.5718418,0,0,-1.5718418,1605.0489,-67.487976)"
         style="stroke:#aab3bb;stroke-opacity:0.46666667">
        <path
           d="m 0,0 c 2.536,-18.011 18.4,-31.629 35.437,-38.001 17.037,-6.373 35.555,-7.158 53.52,-10.004 17.965,-2.847 36.582,-8.399 48.878,-21.803 21.877,-23.847 15.466,-60.912 18.882,-93.093 5.169,-48.692 38.047,-93.478 82.952,-112.999"
           style="fill:none;stroke:#aab3bb;stroke-width:1;stroke-linecap:butt;stroke-linejoin:miter;stroke-miterlimit:10;stroke-dasharray:none;stroke-opacity:0.46666667"
           id="path360" />
      </g>
      <g
         id="g362"
         transform="matrix(1.5718418,0,0,-1.5718418,1590.3298,-54.710608)"
         style="stroke:#aab3bb;stroke-opacity:0.46666667">
        <path
           d="m 0,0 c 2.536,-18.011 18.4,-31.629 35.437,-38.001 17.037,-6.373 35.555,-7.158 53.52,-10.004 17.965,-2.847 36.582,-8.399 48.878,-21.803 21.877,-23.847 15.466,-60.912 18.883,-93.093 5.169,-48.692 38.046,-93.478 82.951,-112.999"
           style="fill:none;stroke:#aab3bb;stroke-width:1;stroke-linecap:butt;stroke-linejoin:miter;stroke-miterlimit:10;stroke-dasharray:none;stroke-opacity:0.46666667"
           id="path364" />
      </g>
    </g>
  </g>
</svg>
